<svg width="70" height="56" viewBox="0 0 70 56" xmlns="http://www.w3.org/2000/svg"><title>Shape</title><path d="M5 50.298h40v-5.004H5v5.004zM5 30.28h40v-5.004H5v5.004zm61.25 17.516c0-1.043-.365-1.93-1.094-2.66-.73-.73-1.614-1.093-2.656-1.093s-1.927.364-2.656 1.094c-.73.73-1.094 1.616-1.094 2.66 0 1.04.365 1.928 1.094 2.658.73.73 1.614 1.094 2.656 1.094s1.927-.37 2.656-1.1c.73-.73 1.094-1.617 1.094-2.66zM5 10.263h40V5.258H5v5.005zm61.25 17.515c0-1.042-.365-1.93-1.094-2.658-.73-.73-1.614-1.095-2.656-1.095s-1.927.365-2.656 1.095c-.73.73-1.094 1.616-1.094 2.658 0 1.043.365 1.93 1.094 2.66.73.73 1.614 1.093 2.656 1.093s1.927-.36 2.656-1.09c.73-.73 1.094-1.614 1.094-2.66zm0-20.018c0-1.042-.365-1.928-1.094-2.658-.73-.73-1.614-1.095-2.656-1.095s-1.927.365-2.656 1.095c-.73.73-1.094 1.616-1.094 2.658 0 1.043.365 1.93 1.094 2.66.73.73 1.614 1.094 2.656 1.094s1.927-.365 2.656-1.095c.73-.73 1.094-1.62 1.094-2.66zM70 40.29v15.013H0V40.29h70zm0-20.02v15.015H0V20.27h70zM70 .255v15.013H0V.254h70z" fill="#F98E63"/></svg>