<svg width="70" height="70" viewBox="0 0 70 70" xmlns="http://www.w3.org/2000/svg"><title>Shape</title><path d="M15.484 56.64c0-.73-.27-1.363-.81-1.897s-1.18-.8-1.92-.8-1.38.266-1.92.8-.81 1.166-.81 1.896.27 1.36.81 1.89c.54.53 1.18.8 1.92.8s1.38-.27 1.92-.8.81-1.17.81-1.9zm27.472-17.7L13.863 67.68c-1.052 1.04-2.33 1.56-3.84 1.56-1.477 0-2.77-.52-3.88-1.56L1.62 63.13C.54 62.117 0 60.853 0 59.336c0-1.49.54-2.768 1.62-3.835l29.05-28.7c1.11 2.76 2.737 5.19 4.885 7.32 2.147 2.12 4.614 3.73 7.4 4.828zM70 20.608c0 1.095-.327 2.584-.98 4.467-1.338 3.764-3.677 6.82-7.018 9.166-3.342 2.35-7.017 3.52-11.027 3.52-5.26 0-9.76-1.84-13.5-5.54-3.74-3.69-5.61-8.14-5.61-13.34 0-5.19 1.87-9.64 5.61-13.33 3.74-3.7 8.24-5.544 13.5-5.544 1.65 0 3.376.233 5.182.696 1.806.464 3.334 1.117 4.585 1.96.455.31.683.7.683 1.18s-.228.87-.683 1.18l-12.498 7.12v9.44l8.233 4.51c.142-.084 1.265-.765 3.37-2.044 2.104-1.278 4.03-2.416 5.78-3.413 1.75-1 2.75-1.5 3.007-1.5.427 0 .76.14 1.002.42.242.28.363.632.363 1.054z" fill="#F98E63"/></svg>