<svg width="130" height="184" viewBox="0 0 130 184" xmlns="http://www.w3.org/2000/svg"><g fill="none" fill-rule="evenodd"><path fill="#E44D26" fill-rule="nonzero" d="M11.822 168.634L0 36.034h129.905l-11.835 132.58-53.197 14.747-53.05-14.72"/><path fill="#F16529" fill-rule="nonzero" d="M64.952 172.088l42.986-11.917 10.114-113.29h-53.1v125.21"/><path d="M64.952 96.056h-21.52l-1.486-16.653h23.006V63.14H24.174l.388 4.363 3.997 44.816h36.39V96.05v.003zm0 42.236l-.07.02-18.113-4.892-1.16-12.97H29.29l2.278 25.534 33.313 9.25.08-.022V138.29v.002z" fill="#EBEBEB" fill-rule="nonzero"/><path d="M12.087 0h8.264v8.165h7.56V0h8.27v24.727h-8.27v-8.28h-7.56v8.28h-8.26V0zm34.957 8.2h-7.276V0h22.82v8.2h-7.28v16.527h-8.264V8.2zM66.21 0h8.617l5.303 8.688L85.424 0h8.62v24.727h-8.23V12.47l-5.686 8.793h-.142l-5.69-8.792v12.26H66.21V0zm31.948 0h8.267v16.553h11.624v8.174H98.16V0h-.002z" fill="#000"/><path d="M64.896 96.056v16.262h20.026l-1.887 21.092-18.14 4.895v16.92l33.34-9.24.245-2.746 3.82-42.82.4-4.37H64.894h.002zm0-32.916v16.262h39.282l.326-3.655.742-8.246.388-4.36H64.896z" fill="#FFF" fill-rule="nonzero"/></g></svg>