<svg width="23.571" height="23.571" viewBox="0.000000 -47.142857 23.571429 23.571429" xmlns="http://www.w3.org/2000/svg"><path d="M23.57-28.527c0 .302-.054.695-.166 1.18-.112.486-.23.868-.352 1.147-.234.558-.915 1.15-2.042 1.775-1.05.57-2.087.854-3.114.854-.3 0-.597-.02-.887-.06-.29-.04-.62-.11-.97-.21-.35-.1-.62-.18-.79-.25-.18-.06-.49-.18-.93-.35-.45-.17-.72-.27-.82-.3-1.1-.39-2.07-.86-2.93-1.39-1.42-.88-2.89-2.09-4.42-3.62-1.53-1.53-2.74-3-3.62-4.42-.54-.86-1-1.84-1.39-2.93l-.3-.82c-.17-.45-.29-.76-.35-.93-.06-.17-.15-.44-.25-.79-.1-.35-.17-.67-.21-.96-.01-.27-.03-.57-.03-.87 0-1.028.283-2.066.852-3.115.625-1.13 1.216-1.81 1.774-2.045.28-.122.662-.24 1.147-.35.486-.112.88-.17 1.18-.17.157 0 .274.02.352.05.2.07.497.493.887 1.275.123.21.29.512.502.903.212.39.408.74.586 1.06.18.32.353.61.52.89l.293.42c.162.23.282.43.36.59.078.16.117.32.117.47 0 .22-.15.5-.47.84-.32.33-.66.64-1.04.92s-.72.57-1.04.88c-.32.312-.47.57-.47.77 0 .1.03.226.09.376s.11.263.14.34c.04.08.12.21.24.4.12.19.18.297.19.32.85 1.53 1.82 2.84 2.92 3.934 1.09 1.097 2.4 2.068 3.93 2.916.027.01.13.077.32.194s.326.193.4.23c.08.04.197.09.347.145.15.05.28.08.38.08.2 0 .46-.16.77-.48.313-.32.61-.664.887-1.04.28-.372.588-.72.92-1.036.338-.32.617-.48.84-.48.156 0 .315.04.477.12.165.073.36.193.598.36.234.16.374.26.42.29.28.17.576.34.894.52.32.18.673.37 1.064.583.39.21.69.38.906.5.78.39 1.202.688 1.27.89.033.08.05.2.05.35zm0 0"/></svg>